<?xml version="1.0" encoding="utf-8"?>
<!-- Generator: Adobe Illustrator 16.0.0, SVG Export Plug-In . SVG Version: 6.00 Build 0)  -->
<!DOCTYPE svg PUBLIC "-//W3C//DTD SVG 1.1//EN" "http://www.w3.org/Graphics/SVG/1.1/DTD/svg11.dtd">
<svg version="1.1" xmlns="http://www.w3.org/2000/svg" xmlns:xlink="http://www.w3.org/1999/xlink" x="0px" y="0px"
	 width="80.626px" height="79.766px" viewBox="0 0 80.626 79.766" enable-background="new 0 0 80.626 79.766" xml:space="preserve">
<g id="Layer_1">
</g>
<g id="Layer_2">
	<path fill-rule="evenodd" clip-rule="evenodd" d="M68.171,36.409c0,4.534,0,9.065,0,13.598v6.41h-6.41c-5.933,0-11.866,0-17.798,0
		v23.349h-6.41c-10.38,0-20.762,0-31.143,0H0V25.091h6.41v48.266c10.379,0,20.762,0,31.143,0v-23.35c8.069,0,16.139,0,24.208,0
		c0-10.38,0-20.761,0-31.143c-10.146,0-20.294,0-30.44,0V43.78h-6.222V12.638H67.99V30h6.226v-0.009h6.41v6.418H68.171z"/>
	<rect x="37.553" y="25.093" fill-rule="evenodd" clip-rule="evenodd" fill="#ED1F24" width="17.977" height="18.687"/>
	<path fill-rule="evenodd" clip-rule="evenodd" d="M0,18.863v-6.409h12.453c0-2.015,0-4.029,0-6.044V0h6.41
		c18.451,0,36.902,0,55.353,0h6.41v23.763h-6.41V6.41c-18.45,0-36.902,0-55.353,0c0,14.531,0,29.064,0,43.597h12.458v17.121H12.638
		V18.864H9.883v-0.001H0z"/>
</g>
<g id="Layer_3">
</g>
</svg>
