<?xml version="1.0" encoding="utf-8"?>
<!-- Generator: Adobe Illustrator 16.0.0, SVG Export Plug-In . SVG Version: 6.00 Build 0)  -->
<!DOCTYPE svg PUBLIC "-//W3C//DTD SVG 1.1//EN" "http://www.w3.org/Graphics/SVG/1.1/DTD/svg11.dtd">
<svg version="1.1" id="Layer_1" xmlns="http://www.w3.org/2000/svg" xmlns:xlink="http://www.w3.org/1999/xlink" x="0px" y="0px"
	 width="174.386px" height="86.398px" viewBox="0 0 174.386 86.398" enable-background="new 0 0 174.386 86.398"
	 xml:space="preserve">
<g opacity="0.05">
	<path fill="#E0E0E0" d="M14.496,22.998h5.473l-2.785-9.086L14.496,22.998z M14.496,22.998"/>
	<path fill="#E0E0E0" d="M33.461,0.6H9.742C4.371,0.6,0,4.971,0,10.342v23.719c0,5.371,4.371,9.738,9.742,9.738h23.719
		c5.371,0,9.738-4.367,9.738-9.738V10.342C43.199,4.971,38.832,0.6,33.461,0.6L33.461,0.6z M22.754,32.6l-2.211-7.229h-6.656
		l-2.11,7.229H9.281l6.59-22.398h2.656L25.344,32.6H22.754z M30.594,32.6h-2.305V16.569h2.305V32.6z M30.398,12.12
		c-0.254,0.253-0.559,0.382-0.91,0.382s-0.66-0.132-0.93-0.398c-0.266-0.266-0.398-0.57-0.398-0.914c0-0.34,0.133-0.645,0.398-0.91
		c0.27-0.27,0.578-0.403,0.93-0.403s0.656,0.129,0.91,0.387c0.258,0.254,0.387,0.563,0.387,0.926
		C30.785,11.553,30.656,11.866,30.398,12.12L30.398,12.12z M30.398,12.12"/>
</g>
<g opacity="0.05">
	<path fill="#E0E0E0" d="M102.141,11.84h-5.215v10.559h5.344c0.77,0,1.418-0.148,1.953-0.445c0.531-0.301,0.922-0.621,1.168-0.961
		s0.438-0.832,0.574-1.473c0.141-0.641,0.215-1.121,0.227-1.441c0.008-0.316,0.016-0.777,0.016-1.375
		C106.207,13.461,104.852,11.84,102.141,11.84L102.141,11.84z M102.141,11.84"/>
	<path fill="#E0E0E0" d="M119.859,0H96.141c-5.371,0-9.742,4.371-9.742,9.742v23.719c0,5.371,4.371,9.738,9.742,9.738h23.719
		c5.371,0,9.738-4.367,9.738-9.738V9.742C129.598,4.371,125.23,0,119.859,0L119.859,0z M108.445,18.609
		c-0.043,0.543-0.176,1.227-0.398,2.047s-0.527,1.492-0.914,2.016c-0.383,0.523-0.969,0.984-1.758,1.375
		c-0.789,0.398-1.73,0.595-2.816,0.595h-5.633V32h-2.305V9.602h7.715c2.09,0,3.641,0.648,4.656,1.949
		c1.012,1.301,1.52,3.008,1.52,5.121C108.512,17.418,108.488,18.063,108.445,18.609L108.445,18.609z M120.957,31.152
		c-0.957,0.883-2.363,1.328-4.207,1.328s-3.289-0.438-4.336-1.313s-1.59-1.953-1.633-3.23l2.242-0.098
		c0.082,0.789,0.48,1.402,1.184,1.841c0.703,0.437,1.516,0.655,2.43,0.655c0.918,0,1.715-0.207,2.387-0.625
		c0.672-0.414,1.008-1.012,1.008-1.789c0-0.78-0.289-1.398-0.863-1.855c-0.578-0.461-1.281-0.824-2.113-1.089
		c-0.832-0.267-1.668-0.547-2.512-0.849c-0.844-0.297-1.586-0.77-2.223-1.405c-0.793-0.75-1.188-1.661-1.188-2.739
		s0.434-2.082,1.297-3.008c0.863-0.93,2.266-1.391,4.207-1.391c0.684,0,1.324,0.078,1.922,0.238s1.023,0.316,1.281,0.465
		l0.383,0.223l-0.734,2.016c-0.684-0.531-1.582-0.797-2.691-0.797s-1.934,0.207-2.477,0.621c-0.547,0.418-0.816,0.945-0.816,1.586
		c0,0.703,0.34,1.258,1.023,1.664c0.68,0.402,1.449,0.747,2.305,1.023c0.852,0.277,1.699,0.586,2.543,0.926
		c0.844,0.345,1.555,0.875,2.145,1.602c0.586,0.723,0.879,1.684,0.879,2.879C122.398,29.228,121.918,30.267,120.957,31.152
		L120.957,31.152z M120.957,31.152"/>
</g>
</svg>
